<svg xmlns="http://www.w3.org/2000/svg" viewBox="0 0 62 54" width="62" height="54" fill="none"><rect x="0" y="0" width="62" height="54" rx="3" fill="#111111"></rect><path d="M3.0,32.1L5.2,30.7L5.9,30.0L7.3,29.4L8.0,28.5L9.0,27.6L9.4,26.5L8.9,25.5L8.3,24.4L8.0,22.6L9.6,22.0L11.0,21.6L12.0,21.4L12.9,21.4L13.8,21.5L14.7,21.4L16.9,21.8L17.9,22.3L18.8,22.8L19.8,22.4L21.8,22.3L22.9,22.4L24.0,22.1L25.2,21.0L26.0,20.5L27.0,20.0L28.0,19.9L28.3,18.7L28.0,17.2L28.8,16.3L28.2,15.5L27.4,15.0L27.4,13.3L28.5,12.9L29.6,11.9L30.9,11.0L32.4,9.2L33.1,8.3L34.6,7.1L36.3,6.1L37.4,5.5L38.6,5.5L41.4,5.4L42.8,5.5L45.5,5.3L48.5,5.3L48.5,6.2L48.6,7.5L48.2,8.7L48.2,9.6L48.7,10.4L48.5,11.6L48.7,12.6L48.1,13.4L47.8,14.9L48.0,16.0L48.1,17.1L48.0,18.4L47.8,19.3L48.8,19.0L49.1,22.5L48.9,26.1L48.8,27.0L48.2,30.6L47.3,33.9L47.2,37.6L47.1,40.0L47.0,41.3L47.5,42.1L45.8,43.2L46.3,44.0L45.5,44.9L45.4,46.0L46.4,45.1L47.4,44.9L48.3,44.8L49.3,45.0L50.3,44.4L52.5,44.5L53.5,44.3L54.6,43.6L55.5,42.8L56.1,43.7L57.2,44.2L58.2,43.7L57.2,44.4L55.2,45.4L53.9,45.9L51.9,46.6L50.5,47.3L49.4,47.6L47.0,48.0L45.4,48.0L44.2,48.4L43.5,47.6L43.7,46.3L44.6,44.3L41.1,42.2L38.9,40.8L38.2,40.1L37.1,39.6L36.2,38.4L36.4,37.0L35.9,36.2L34.9,35.9L34.2,34.7L31.5,34.7L27.2,34.7L24.4,34.7L21.7,34.7L15.5,34.7L11.3,34.7L9.3,34.7L3.0,34.7Z" fill="#FFFFFF"></path></svg>